<svg width="1500" height="1500" viewBox="0 0 1500 1500" fill="none" xmlns="http://www.w3.org/2000/svg">
<path d="M449.09 579.247L503.82 554.621H508.186V709.609L446.343 704.778C441.026 704.363 435.798 703.176 430.823 701.256L396.47 687.998C383.39 682.951 372.732 673.098 366.673 660.455L361.367 649.382C354.877 635.84 355.473 619.971 362.959 606.954C371.092 592.81 386.164 584.091 402.48 584.091H426.522C434.302 584.091 441.994 582.44 449.09 579.247Z" fill="#FEB400"/>
<path d="M1102 512.471V762H503.82V527.285V507.103C503.82 490.69 507.078 474.44 513.406 459.296L528.305 423.64C550.496 370.533 591.482 327.467 643.427 302.676L700.746 275.321C767.131 243.638 844.55 245.015 909.767 279.039L963.363 307C1005.99 329.24 1040.74 364.074 1062.87 406.762L1088.08 455.398C1097.23 473.033 1102 492.607 1102 512.471Z" fill="#A93BFC"/>
<circle cx="749.5" cy="461.5" r="88.5" fill="black"/>
<circle cx="722.185" cy="421.075" r="30.5926" fill="white"/>
<rect x="351" y="736" width="797" height="539" rx="41" fill="white"/>
<ellipse cx="749.5" cy="1005" rx="212.5" ry="213" fill="black"/>
<ellipse cx="750.589" cy="1006.09" rx="78.4615" ry="78.6462" fill="white"/>
<ellipse cx="750.59" cy="1006.09" rx="32.6923" ry="32.7692" fill="black"/>
<ellipse cx="442.414" cy="805.381" rx="28.4137" ry="28.3812" fill="black"/>
<ellipse cx="442.414" cy="1189.62" rx="28.4137" ry="28.3812" fill="black"/>
<ellipse cx="1056.59" cy="805.381" rx="28.4137" ry="28.3812" fill="black"/>
<ellipse cx="1056.59" cy="1189.62" rx="28.4137" ry="28.3812" fill="black"/>
</svg>
